# AST/ASF file generated using VICON BodyLanguage
# -----------------------------------------------
:version 1.10
:name VICON
:units
  mass 1.0
  length 0.45
  angle deg
:documentation
   .ast/.asf automatically generated from VICON data using
   VICON BodyBuilder and BodyLanguage model FoxedUp or BRILLIANT.MOD
:root
   order TX TY TZ RX RY RZ
   axis XYZ
   position 0 0 0  
   orientation 0 0 0 
:bonedata
  begin
     id 1 
     name lhipjoint
     direction 0.662698 -0.695252 0.27831 
     length 2.53073 
     axis 0 0 0  XYZ
  end
  begin
     id 2 
     name lfemur
     direction 0.34202 -0.939693 0  
     length 7.16147  
     axis 0 0 20  XYZ
    dof rx ry rz
    limits (-160.0 20.0)
           (-70.0 70.0)
           (-60.0 70.0)
  end
  begin
     id 3 
     name ltibia
     direction 0.34202 -0.939693 0   
     length 7.63967   
     axis 0 0 20   XYZ
    dof rx
    limits (-10.0 170.0)
  end
  begin
     id 4 
     name lfoot
     direction 0.0938457 -0.257721 0.961651   
     length 1.89793   
     axis -90 7.62852e-016 20   XYZ
    dof rx rz
    limits (-45.0 90.0)
           (-70.0 20.0)
  end
  begin
     id 5 
     name ltoes
     direction -0.00116841 -0.0030592 0.999995   
     length 0.955649   
     axis -90 7.62852e-016 20   XYZ
    dof rx
    limits (-90.0 20.0)
  end
  begin
     id 6 
     name rhipjoint
     direction -0.649445 -0.705948 0.282592   
     length 2.49238  
     axis 0 0 0  XYZ 
  end
  begin
     id 7 
     name rfemur
     direction -0.34202 -0.939693 0   
     length 6.90728   
     axis 0 0 -20   XYZ
    dof rx ry rz
    limits (-160.0 20.0)
           (-70.0 70.0)
           (-70.0 60.0)
  end
  begin
     id 8 
     name rtibia
     direction -0.34202 -0.939693 0   
     length 7.72868   
     axis 0 0 -20   XYZ
    dof rx
    limits (-10.0 170.0)
 end
 begin
     id 9 
     name rfoot
     direction -0.0920068 -0.252865 0.963117   
     length 1.97476  
     axis -90 -7.62852e-016 -20   XYZ
    dof rx rz
    limits (-45.0 90.0)
           (-20.0 70.0)
  end
  begin
     id 10 
     name rtoes
     direction 0.000391322 0.00230649 0.999997   
     length 0.992641   
     axis -90 -7.62852e-016 -20   XYZ
    dof rx
    limits (-90.0 20.0)
  end
  begin
     id 11 
     name lowerback
     direction -0.00875327 0.998321 -0.0572635   
     length 2.20024   
     axis 0 0 0   XYZ
    dof rx ry rz
    limits (-20.0 45.0)
           (-30.0 30.0)
           (-30.0 30.0)
  end
  begin
     id 12 
     name upperback
     direction 0.00753931 0.999972 -0.000360425   
     length 2.20538   
     axis 0 0 0   XYZ
    dof rx ry rz
    limits (-20.0 45.0)
           (-30.0 30.0)
           (-30.0 30.0)
  end
  begin
     id 13 
     name thorax
     direction 0.0117767 0.999601 0.0256663   
     length 2.21508   
     axis 0 0 0   XYZ
    dof rx ry rz
    limits (-20.0 45.0)
           (-30.0 30.0)
           (-30.0 30.0)
  end
  begin
     id 14 
     name lowerneck
     direction 0.060228 0.994909 0.0807986   
     length 1.7607   
     axis 0 0 0   XYZ
    dof rx ry rz
    limits (-20.0 45.0)
           (-30.0 30.0)
           (-30.0 30.0)
  end
  begin
     id 15 
     name upperneck
     direction -0.0563647 0.959594 -0.275685   
     length 1.75612   
     axis 0 0 0   XYZ
    dof rx ry rz
    limits (-20.0 45.0)
           (-30.0 30.0)
           (-30.0 30.0)
  end
  begin
     id 16
     name head
     direction -0.0161544 0.99458 -0.102714  
     length 1.79288  
     axis 0 0 0   XYZ
    dof rx ry rz
    limits (-20.0 45.0)
           (-30.0 30.0)
           (-30.0 30.0)
  end
  begin
     id 17 
     name lclavicle
     direction 0.93913 0.332189 -0.087669  
     length 3.52087  
     axis 0 0 0   XYZ
    dof ry rz
    limits (-20.0 10.0)
           (0.0 20.0)
  end
  begin
     id 18 
     name lhumerus
     direction 1 -4.48974e-011 -2.70836e-027   
     length 5.35289   
     axis -180 -30 -90   XYZ
    dof rx ry rz
    limits (-60.0 90.0)
           (-90.0 90.0)
           (-90.0 90.0)
  end
  begin
     id 19
     name lradius
     direction 1 -4.48961e-011 -9.76021e-027   
     length 3.27727   
     axis -180 -30 -90   XYZ
    dof rx
    limits (-10.0 170.0)
  end
  begin
     id 20
     name lwrist
     direction 1 -4.49103e-011 -2.23668e-026   
     length 1.63864   
     axis 1.44924e-014 90 90   XYZ
    dof ry
    limits (-180.0 0.0)
 end
  begin
     id 21 
     name lhand
     direction 1 3.0697e-005 0.000161777   
     length 0.54443   
     axis 2.85318e-014 90 90   XYZ
    dof rx rz
    limits (-90.0 90.0)
           (-45.0 45.0)
  end
  begin
     id 22 
     name lfingers
     direction 1 -4.49027e-011 -8.9447e-026   
     length 0.438912   
     axis 5.70628e-014 90 90   XYZ
    dof rx
    limits (0.0 90.0)
  end
  begin
     id 23
     name lthumb
     direction 0.707058 2.6516e-005 0.707156   
     length 0.630274   
     axis -90 45 -3.53137e-014   XYZ
    dof rx rz
    limits (-45.0 45.0)
           (-45.0 45.0)
  end
  begin
     id 24 
     name rclavicle
     direction -0.95274 0.284984 -0.105215   
     length 3.43401  
     axis 0 0 0   XYZ 
    dof ry rz
    limits (-10.0 20.0)
           (-20.0 0.0)
  end
  begin
     id 25 
     name rhumerus
     direction -0.999999 -0.000575019 -0.00106829  
     length 5.52077   
     axis -180 30 90   XYZ
    dof rx ry rz
    limits (-90.0 60.0)
           (-90.0 90.0)
           (-90.0 90.0)
  end
  begin
     id 26 
     name rradius
     direction -1 -4.4879e-011 -6.35415e-027   
     length 3.32364   
     axis -180 30 90   XYZ
    dof rx
    limits (-10.0 170.0)
  end
  begin
     id 27 
     name rwrist
     direction -1 -4.49048e-011 -9.98542e-027   
     length 1.66182   
     axis 6.32482e-015 -90 -90   XYZ
    dof ry
    limits (-180.0 0.0)
  end
  begin
     id 28
     name rhand
     direction -1 -4.48978e-011 -1.99771e-026   
     length 0.732235   
     axis 1.27479e-014 -90 -90   XYZ
    dof rx rz
    limits (-90.0 90.0)
           (-45.0 45.0)
  end
  begin
     id 29
     name rfingers
     direction -1 -4.49144e-011 -3.99245e-026   
     length 0.590347   
     axis 2.5496e-014 -90 -90   XYZ
    dof rx
    limits (0.0 90.0)
  end
  begin
     id 30
     name rthumb
     direction -0.707107 -6.35121e-011 0.707107   
     length 0.847624   
     axis -90 -45 -2.82974e-014   XYZ
    dof rx rz
    limits (-45.0 45.0)
           (-45.0 45.0)
  end
:hierarchy
  begin
    root lhipjoint rhipjoint lowerback
    lhipjoint lfemur
    lfemur ltibia
    ltibia lfoot
    lfoot ltoes
    rhipjoint rfemur
    rfemur rtibia
    rtibia rfoot
    rfoot rtoes
    lowerback upperback
    upperback thorax
    thorax lowerneck lclavicle rclavicle
    lowerneck upperneck
    upperneck head
    lclavicle lhumerus
    lhumerus lradius
    lradius lwrist
    lwrist lhand lthumb
    lhand lfingers
    rclavicle rhumerus
    rhumerus rradius
    rradius rwrist
    rwrist rhand rthumb
    rhand rfingers
  end

#!OML:ASF G:\Work\Work\Patient Classification 1\Elijah\terrain1\Elijah.ASF
:FULLY-SPECIFIED
:DEGREES
1426
root 1.96513 22.175 -21.9156 193.779 -71.1495 172.805
lowerback 8.70214 0.0462641 0.0993974
upperback 2.21031 0.015322 0.714781
thorax -2.58887 -0.0251262 0.68204
lowerneck -6.59648 18.9971 17.0651
upperneck 25.3038 30.2309 -22.4981
head 17.0094 12.566 -5.94468
rclavicle 3.37934e-014 -9.54166e-015
rhumerus -40.8562 1.80497 -80.2361
rradius 34.8545
rwrist -4.44164
rhand -15.5021 23.2792
rfingers 7.12502
rthumb 10.6805 -6.42929
lclavicle 3.37934e-014 -9.54166e-015
lhumerus -35.1173 -3.84746 87.3559
lradius 60.6847
lwrist 14.3821
lhand -17.4215 25.6228
lfingers 7.12502
lthumb 8.82859 55.4181
rfemur -45.9662 -1.32911 16.5142
rtibia 54.883
rfoot -9.23776 -0.32387
rtoes -19.0343
lfemur -16.3712 4.04838 -32.7181
ltibia 44.8675
lfoot -18.0269 21.249
ltoes -65.3901
1427
root 1.88257 22.1883 -21.9325 193.724 -72.2196 172.739
lowerback 8.55654 0.00943747 0.438406
upperback 2.31629 -0.00836307 0.706542
thorax -2.39829 -0.0392913 0.484951
lowerneck -6.76953 18.8977 17.3229
upperneck 25.5513 30.1067 -22.5121
head 17.2056 12.5105 -6.02519
rclavicle -4.39314e-014 -1.11319e-014
rhumerus -40.9553 1.83002 -80.122
rradius 34.5945
rwrist -4.44805
rhand -15.477 23.1894
rfingers 7.12502
rthumb 10.7046 -6.51784
lclavicle -4.39314e-014 -1.11319e-014
lhumerus -34.6526 -2.15684 87.0946
lradius 58.9378
lwrist 11.7673
lhand -14.7188 22.7802
lfingers 7.12502
lthumb 11.4359 52.4483
rfemur -45.0701 -1.21494 16.4823
rtibia 52.3901
rfoot -7.93968 0.110846
rtoes -20.2432
lfemur -16.1596 4.23633 -32.4136
ltibia 45.5197
lfoot -19.6881 20.2714
ltoes -65.3696
1428
root 1.8011 22.1952 -21.98 195.704 -73.0404 170.643
lowerback 8.27644 0.110171 -0.245854
upperback 2.34542 0.0667954 0.600804
thorax -2.21449 0.0012263 0.752322
lowerneck -6.80121 18.8168 17.6005
upperneck 25.8917 29.9959 -22.4032
head 17.3906 12.4816 -6.07002
rclavicle 1.96797e-014 1.66979e-014
rhumerus -41.1829 1.50281 -79.8654
rradius 34.2858
rwrist -4.1745
rhand -15.2918 23.2861
rfingers 7.12502
rthumb 10.8833 -6.41188
lclavicle 1.96797e-014 1.66979e-014
lhumerus -34.8434 -1.98073 87.3919
lradius 58.6454
lwrist 11.5358
lhand -14.6676 23.6276
lfingers 7.12502
lthumb 11.4853 53.2929
rfemur -44.2805 -0.83597 15.8413
rtibia 49.936
rfoot -6.47794 0.204892
rtoes -22.0033
lfemur -16.0802 4.6193 -32.7155
ltibia 46.1653
lfoot -21.0613 19.0255
ltoes -65.2177
1429
root 1.72189 22.2058 -22.0187 197.177 -73.9119 169.018
lowerback 8.20666 0.100467 -0.518083
upperback 2.3173 0.0318658 0.495179
thorax -2.20449 -0.014176 0.799817
lowerneck -6.748 18.792 17.7965
upperneck 26.1971 29.9769 -22.2987
head 17.5494 12.4895 -6.08286
rclavicle 8.34896e-015 1.59028e-015
rhumerus -41.4686 1.41425 -79.737
rradius 34.0289
rwrist -4.18669
rhand -14.959 23.2379
rfingers 7.12502
rthumb 11.2043 -6.44288
lclavicle 8.34896e-015 1.59028e-015
lhumerus -35.5523 -2.65987 87.7068
lradius 59.0978
lwrist 12.5753
lhand -15.6064 24.7496
lfingers 7.12502
lthumb 10.5799 54.4633
rfemur -43.2198 -0.474411 15.415
rtibia 47.2468
rfoot -4.89744 0.108333
rtoes -23.0266
lfemur -15.9709 4.97385 -32.7706
ltibia 46.7945
lfoot -22.4641 17.4837
ltoes -65.1219
1430
root 1.62548 22.2197 -22.0549 197.289 -74.56 168.744
lowerback 8.04137 0.101933 -0.633121
upperback 2.33129 0.028705 0.593532
thorax -2.0985 -0.0156473 0.965977
lowerneck -6.68138 18.7964 17.9588
upperneck 26.4403 30.0619 -22.3904
head 17.7601 12.5204 -6.146
rclavicle 7.55382e-015 -5.56597e-015
rhumerus -41.6621 1.65285 -79.5048
rradius 33.7185
rwrist -4.28689
rhand -14.6294 23.1147
rfingers 7.12502
rthumb 11.5222 -6.54861
lclavicle 7.55382e-015 -5.56597e-015
lhumerus -36.4418 -2.73989 87.6183
lradius 59.3407
lwrist 11.3676
lhand -12.768 22.8304
lfingers 7.12502
lthumb 13.3169 52.3849
rfemur -41.9393 0.248945 15.2739
rtibia 44.4539
rfoot -3.31149 -0.0635343
rtoes -22.2715
lfemur -15.7554 5.55027 -32.4061
ltibia 47.5171
lfoot -24.0068 16.042
ltoes -65.0177
1431
root 1.52129 22.2755 -22.0787 196.868 -75.2835 169.047
lowerback 7.78909 0.248194 -0.109873
upperback 2.34245 0.262435 0.420029
thorax -1.94896 0.100859 0.470914
lowerneck -6.72578 18.699 18.3621
upperneck 26.8277 29.8844 -22.2
head 17.9622 12.4826 -6.19551
rclavicle 1.25234e-014 -1.03368e-014
rhumerus -41.9966 0.740685 -79.2375
rradius 33.3338
rwrist -3.74758
rhand -14.4401 23.0826
rfingers 7.12502
rthumb 11.7047 -6.57041
lclavicle 1.25234e-014 -1.03368e-014
lhumerus -37.4144 -3.9081 87.4902
lradius 59.7322
lwrist 10.8064
lhand -10.567 20.5578
lfingers 7.12502
lthumb 15.4376 49.9613
rfemur -40.5358 0.902911 15.2724
rtibia 41.783
rfoot -1.97236 -0.284119
rtoes -21.948
lfemur -15.4059 6.15838 -31.9085
ltibia 47.9783
lfoot -25.3602 14.2218
ltoes -64.9301
1432
root 1.42329 22.2863 -22.094 195.111 -76.155 170.691
lowerback 7.59827 0.337404 0.81597
upperback 2.36944 0.449221 0.376041
thorax -1.80901 0.193963 -0.110671
lowerneck -6.68104 18.6552 18.7042
upperneck 27.1489 29.789 -22.0016
head 18.1163 12.4865 -6.2083
rclavicle 2.38542e-015 -2.78299e-015
rhumerus -42.3758 0.207828 -79.1399
rradius 33.0734
rwrist -3.39293
rhand -14.5946 22.9563
rfingers 7.12502
rthumb 11.5557 -6.70512
lclavicle 2.38542e-015 -2.78299e-015
lhumerus -38.5712 -5.67107 87.8047
lradius 61.0118
lwrist 12.1761
lhand -11.0503 22.8564
lfingers 7.12502
lthumb 14.972 52.2952
rfemur -39.0524 1.4532 15.6551
rtibia 38.8956
rfoot -0.563689 -0.725887
rtoes -21.0038
lfemur -15.3086 6.65056 -31.0366
ltibia 48.8636
lfoot -26.616 12.337
ltoes -64.7527
1433
root 1.32232 22.273 -22.1887 206.958 -76.1444 158.949
lowerback 6.70033 0.427231 -3.06418
upperback 2.19033 0.312705 0.0461992
thorax -1.51412 0.129584 1.74404
lowerneck -6.42964 18.6771 18.8352
upperneck 27.4 29.9139 -22.0466
head 18.2848 12.5533 -6.25185
rclavicle -3.57812e-015 9.54166e-015
rhumerus -42.8324 0.743936 -78.9202
rradius 32.9356
rwrist -3.37771
rhand -14.7317 22.8554
rfingers 7.12502
rthumb 11.4235 -6.81345
lclavicle -3.57812e-015 9.54166e-015
lhumerus -40.0333 -6.73105 88.3633
lradius 62.2442
lwrist 13.4103
lhand -11.2886 23.7915
lfingers 7.12502
lthumb 14.7425 53.2473
rfemur -38.45 2.3138 12.3149
rtibia 36.2621
rfoot 0.852718 -1.89663
rtoes -18.9992
lfemur -15.6535 6.75179 -33.5392
ltibia 49.4861
lfoot -27.7829 10.4309
ltoes -64.4657
